<?xml version="1.0" encoding="iso-8859-1"?>
<!-- Generator: Adobe Illustrator 19.0.0, SVG Export Plug-In . SVG Version: 6.00 Build 0)  -->
<svg version="1.1" id="Layer_1" xmlns="http://www.w3.org/2000/svg" xmlns:xlink="http://www.w3.org/1999/xlink" x="0px" y="0px"
	 viewBox="0 0 502.596 502.596" style="enable-background:new 0 0 502.596 502.596;" xml:space="preserve">
<path style="fill:#E2E2E2;" d="M485.878,308.767H15.673C7.314,308.767,0,316.082,0,324.441l0,0c0,8.359,7.314,15.673,15.673,15.673
	h470.204c8.359,0,15.673-7.314,15.673-15.673l0,0C501.551,315.037,494.237,308.767,485.878,308.767z"/>
<path style="fill:#FFD15C;" d="M25.078,382.955v56.424c0,34.482,28.212,62.694,62.694,62.694H413.78
	c34.482,0,62.694-28.212,62.694-62.694v-56.424H25.078z"/>
<path style="fill:#F1543F;" d="M444.082,193.829H57.469C26.122,193.829,0,218.906,0,251.298c0,31.347,25.078,57.469,57.469,57.469
	h386.612c31.347,0,57.469-25.078,57.469-57.469C501.551,219.951,476.473,193.829,444.082,193.829z"/>
<path style="fill:#FFD15C;" d="M326.008,0.522H175.543c-83.592,0-150.465,66.873-150.465,150.465h451.396
	C476.473,67.396,409.6,0.522,326.008,0.522z"/>
<g>
	<path style="fill:#FF7058;" d="M479.608,150.988H21.943C10.449,150.988,0,160.392,0,172.931c0,11.494,9.404,21.943,21.943,21.943
		h458.71c11.494,0,21.943-9.404,21.943-21.943C501.551,160.392,492.147,150.988,479.608,150.988z"/>
	<path style="fill:#FF7058;" d="M479.608,340.114H21.943C10.449,340.114,0,349.518,0,362.057C0,373.551,9.404,384,21.943,384h458.71
		c11.494,0,21.943-9.404,21.943-21.943C501.551,349.518,492.147,340.114,479.608,340.114z"/>
</g>
<path style="fill:#4CDBC4;" d="M80.457,193.829l129.567,79.412c25.078,15.673,56.424,15.673,80.457,0l130.612-79.412H80.457z"/>
<g>
	<path style="fill:#F8B64C;" d="M380.343,36.049l-10.449,1.045c-2.09,0-3.135,2.09-3.135,3.135c0,1.045,0,2.09,1.045,2.09
		c1.045,1.045,1.045,1.045,2.09,1.045l10.449-1.045c2.09,0,3.135-2.09,3.135-3.135C384.522,37.094,382.433,35.004,380.343,36.049z"
		/>
	<path style="fill:#F8B64C;" d="M153.6,15.151c-1.045-1.045-3.135-1.045-5.224,0c-1.045,1.045-1.045,3.135,0,5.224l7.314,7.314
		c1.045,1.045,1.045,1.045,2.09,1.045s2.09,0,2.09-1.045c1.045-1.045,1.045-3.135,0-5.224L153.6,15.151z"/>
	<path style="fill:#F8B64C;" d="M408.555,80.98l-7.314,7.314c-1.045,1.045-1.045,3.135,0,5.224c1.045,1.045,1.045,1.045,2.09,1.045
		c1.045,0,2.09,0,2.09-1.045l7.314-7.314c1.045-1.045,1.045-3.135,0-5.224C412.735,79.935,410.645,79.935,408.555,80.98z"/>
	<path style="fill:#F8B64C;" d="M90.906,80.98l-7.314,7.314c-1.045,1.045-1.045,3.135,0,5.224c1.045,1.045,1.045,1.045,2.09,1.045
		c1.045,0,2.09,0,2.09-1.045l7.314-7.314c1.045-1.045,1.045-3.135,0-5.224C94.041,79.935,91.951,79.935,90.906,80.98z"/>
	<path style="fill:#F8B64C;" d="M318.694,95.608l-8.359-7.314c-1.045-1.045-3.135-1.045-5.224,0c-1.045,1.045-1.045,3.135,0,4.18
		l0,0l8.359,7.314c1.045,1.045,3.135,1.045,5.224,0C320.784,98.743,320.784,96.653,318.694,95.608z"/>
	<path style="fill:#F8B64C;" d="M357.355,125.91l-10.449,1.045c-2.09,0-3.135,2.09-3.135,3.135c0,2.09,2.09,3.135,3.135,3.135l0,0
		l10.449-1.045c2.09,0,3.135-2.09,3.135-3.135S359.445,125.91,357.355,125.91z"/>
	<path style="fill:#F8B64C;" d="M160.914,61.127l-10.449,1.045c-2.09,0-3.135,2.09-3.135,3.135c0,2.09,2.09,3.135,3.135,3.135l0,0
		l10.449-1.045c2.09,0,3.135-2.09,3.135-3.135C164.049,62.171,163.004,61.127,160.914,61.127z"/>
	<path style="fill:#F8B64C;" d="M257.045,52.767c1.045-1.045,1.045-3.135,0-5.224c-1.045-1.045-3.135-1.045-5.224,0l-7.314,7.314
		c-1.045,1.045-1.045,3.135,0,5.224c1.045,1.045,1.045,1.045,2.09,1.045s2.09,0,2.09-1.045L257.045,52.767z"/>
	<path style="fill:#F8B64C;" d="M226.743,137.404c1.045,0,2.09,0,2.09-1.045c1.045-1.045,1.045-3.135,0-5.224l-7.314-7.314
		c-1.045-1.045-3.135-1.045-5.224,0c-1.045,1.045-1.045,3.135,0,5.224l7.314,7.314C225.698,137.404,225.698,137.404,226.743,137.404
		z"/>
	<path style="fill:#F8B64C;" d="M92.996,140.539c1.045,0,2.09,0,2.09-1.045c1.045-1.045,1.045-3.135,0-5.225l-7.314-7.314
		c-1.045-1.045-3.135-1.045-5.224,0c-1.045,1.045-1.045,3.135,0,5.224l7.314,7.314C91.951,140.539,92.996,140.539,92.996,140.539z"
		/>
	<path style="fill:#F8B64C;" d="M311.38,15.151c-1.045-1.045-3.135-1.045-5.224,0l-7.314,7.314c-1.045,2.09-1.045,4.18,0,5.224
		c1.045,1.045,1.045,1.045,2.09,1.045c1.045,0,2.09,0,2.09-1.045l7.314-7.314C313.469,18.286,313.469,16.196,311.38,15.151z"/>
	<path style="fill:#F8B64C;" d="M455.575,116.506c-1.045-1.045-3.135-1.045-5.224,0l-7.314,7.314c-1.045,1.045-1.045,3.135,0,5.224
		c1.045,1.045,1.045,1.045,2.09,1.045c1.045,0,2.09,0,2.09-1.045l7.314-7.314C457.665,119.641,457.665,117.551,455.575,116.506z"/>
</g>
<g>
</g>
<g>
</g>
<g>
</g>
<g>
</g>
<g>
</g>
<g>
</g>
<g>
</g>
<g>
</g>
<g>
</g>
<g>
</g>
<g>
</g>
<g>
</g>
<g>
</g>
<g>
</g>
<g>
</g>
</svg>
